<svg width="22" height="22" fill="none" xmlns="http://www.w3.org/2000/svg"><path d="M18.66 3.34l-1.528 1.528A8.682 8.682 0 0119.667 11 8.664 8.664 0 0111 19.666 8.664 8.664 0 012.333 11c0-4.42 3.305-8.06 7.584-8.591v2.188C6.84 5.117 4.5 7.782 4.5 11c0 3.586 2.914 6.5 6.5 6.5s6.5-2.914 6.5-6.5a6.44 6.44 0 00-1.907-4.593l-1.527 1.527A4.36 4.36 0 0115.333 11 4.332 4.332 0 0111 15.333 4.332 4.332 0 016.667 11c0-2.015 1.386-3.694 3.25-4.182v2.319A2.145 2.145 0 008.833 11c0 1.191.975 2.166 2.167 2.166A2.173 2.173 0 0013.167 11c0-.802-.434-1.495-1.084-1.864V.166H11C5.02.167.167 5.02.167 11 .167 16.98 5.02 21.833 11 21.833S21.833 16.98 21.833 11a10.8 10.8 0 00-3.174-7.66z" fill="#0F63BD"/></svg>